<svg width="16" height="16" viewBox="0 0 16 16" fill="none" xmlns="http://www.w3.org/2000/svg">
<path d="M10.8804 2.72754C12.5199 2.72768 13.8 4.00795 13.8003 5.64746C13.8003 6.65993 13.3504 7.62615 12.436 8.74414C11.5147 9.87061 10.185 11.0777 8.5249 12.583H8.52393L7.99756 13.0615L7.47412 12.5879C5.81476 11.08 4.48615 9.8721 3.56494 8.74512C2.65033 7.62615 2.19971 6.65998 2.19971 5.64746C2.19995 4.00801 3.48018 2.72778 5.11963 2.72754C6.05156 2.72754 6.95601 3.16465 7.54346 3.85449L8.00049 4.39062L8.45654 3.85449C9.04399 3.16465 9.94844 2.72754 10.8804 2.72754Z" stroke="#595959" stroke-width="1.2"/>
</svg>
