<svg width="16" height="16" viewBox="0 0 16 16" fill="none" xmlns="http://www.w3.org/2000/svg">
<path d="M6.73924 2.04978C6.84083 1.79869 7.01509 1.58366 7.23968 1.43225C7.46428 1.28084 7.72897 1.19995 7.99983 1.19995C8.27069 1.19995 8.53538 1.28084 8.75998 1.43225C8.98457 1.58366 9.15883 1.79869 9.26042 2.04978C10.2659 2.32629 11.1527 2.92523 11.7848 3.75459C12.4169 4.58395 12.7593 5.59788 12.7593 6.64066V9.83428L14.005 11.7027C14.0733 11.8051 14.1125 11.9241 14.1185 12.0471C14.1245 12.17 14.0969 12.2923 14.0389 12.4009C13.9808 12.5094 13.8944 12.6001 13.7887 12.6634C13.6831 12.7266 13.5624 12.76 13.4393 12.76H10.3558C10.2739 13.3265 9.9907 13.8445 9.55802 14.2191C9.12534 14.5937 8.57217 14.8 7.99983 14.8C7.42749 14.8 6.87432 14.5937 6.44164 14.2191C6.00896 13.8445 5.72574 13.3265 5.64388 12.76H2.5604C2.43731 12.76 2.31651 12.7266 2.21091 12.6634C2.10531 12.6001 2.01886 12.5094 1.96079 12.4009C1.90272 12.2923 1.8752 12.17 1.88117 12.0471C1.88714 11.9241 1.92638 11.8051 1.9947 11.7027L3.24033 9.83428V6.64066C3.24033 4.44857 4.72257 2.60188 6.73924 2.04978ZM6.7568 12.76C6.88667 13.1826 7.07408 13.4409 7.27625 13.584C7.4485 13.7059 7.78916 13.7713 8.00017 13.7713C8.21118 13.7713 8.57638 13.7313 8.83458 13.5486C9.16226 13.3167 9.24839 12.959 9.31861 12.76H6.7568ZM7.99983 2.85273C7.09819 2.85273 5.93618 3.28174 5.29862 3.91929C4.66106 4.55685 4.30289 5.73901 4.30289 6.64066V10.0403C4.30292 10.1746 4.26317 10.3059 4.18866 10.4177L3.24033 11.7027H12.7593L11.8041 10.4177C11.7298 10.3058 11.6903 10.1745 11.6906 10.0403V6.64066C11.6906 5.73901 11.3324 4.55685 10.6948 3.91929C10.0573 3.28174 8.90147 2.85273 7.99983 2.85273Z" fill="#595959"/>
</svg>
