<svg width="60" height="60" viewBox="0 0 60 60" fill="none" xmlns="http://www.w3.org/2000/svg">
<path d="M13.2757 0.905834C24.0821 -0.301944 35.252 -0.301944 46.0584 0.905834C50.1157 1.35929 53.6773 3.55336 55.9303 6.73973L27.9171 34.7529L19.2733 26.1091C18.2481 25.0839 16.5861 25.0839 15.561 26.1091C14.5358 27.1342 14.5358 28.7962 15.561 29.8214L26.061 40.3214C27.0861 41.3465 28.7481 41.3465 29.7733 40.3214L58.1773 11.9173C58.2559 12.3008 58.3187 12.6902 58.3649 13.0849C59.6572 24.1341 59.6572 35.2963 58.3649 46.3455C57.6129 52.7749 52.4508 57.8101 46.0584 58.5246C35.252 59.7323 24.0821 59.7323 13.2757 58.5246C6.88334 57.8101 1.7212 52.7749 0.96923 46.3455C-0.323077 35.2963 -0.323077 24.1341 0.96923 13.0849C1.7212 6.65552 6.88335 1.62027 13.2757 0.905834Z" fill="#C6F4C6"/>
</svg>
